<?xml version="1.0" encoding="UTF-8"?>
<svg id="seamless_pattern_alphabet_school_design" data-name="seamless pattern alphabet school design" xmlns="http://www.w3.org/2000/svg" viewBox="0 0 4961 3543">
  <defs>
    <style>
      .cls-1 {
        opacity: .78;
      }

      .cls-1, .cls-2, .cls-3, .cls-4 {
        fill: #1d1d1b;
        stroke-width: 0px;
      }

      .cls-2 {
        opacity: .36;
      }

      .cls-3 {
        opacity: .17;
      }
    </style>
  </defs>
  <path class="cls-4" d="m706.47,460.95l-19.91,71.76h-65.54l85.45-279.59h82.97l86.7,279.59h-68.03l-21.57-71.76h-80.06Zm70.94-47.29l-17.42-59.32c-4.98-16.59-9.96-37.33-14.1-53.93h-.83c-4.15,16.59-8.3,37.75-12.86,53.93l-16.59,59.32h61.81Z"/>
  <path class="cls-4" d="m2048.22,2432.23c16.59-3.32,50.19-5.81,81.72-5.81,38.58,0,62.22,3.73,82.55,15.76,19.5,10.37,33.6,29.45,33.6,54.76s-14.52,48.12-46.05,59.73v.83c31.94,8.71,55.59,32.77,55.59,68.86,0,25.3-11.61,45.22-29.04,59.32-20.33,16.18-54.34,25.3-109.93,25.3-31.11,0-54.34-2.07-68.45-4.15v-274.61Zm62.64,107.02h20.74c33.19,0,51.02-13.69,51.02-34.43s-16.18-32.36-44.8-32.36c-13.69,0-21.57.83-26.96,1.66v65.13Zm0,124.03c6.22.83,13.69.83,24.47.83,28.62,0,53.93-10.79,53.93-40.24s-25.3-39.41-56.83-39.41h-21.57v78.82Z"/>
  <path class="cls-4" d="m3557.76,1279.18c-11.62,5.81-37.75,12.03-71.77,12.03-96.65,0-146.43-60.15-146.43-139.8,0-95.41,68.03-148.51,152.66-148.51,32.77,0,57.66,6.64,68.86,12.45l-12.86,50.19c-12.86-5.39-30.7-10.37-53.1-10.37-50.19,0-89.19,30.28-89.19,92.51,0,56,33.19,91.26,89.6,91.26,19.08,0,40.24-4.15,52.68-9.13l9.54,49.36Z"/>
  <path class="cls-4" d="m1837.28,116.64c23.23-3.73,53.51-5.81,85.45-5.81,53.1,0,87.53,9.54,114.49,29.87,29.04,21.57,47.29,56,47.29,105.37,0,53.51-19.5,90.43-46.46,113.25-29.45,24.47-74.25,36.09-129.01,36.09-32.77,0-56-2.07-71.76-4.15V116.64Zm63.47,228.15c5.39,1.25,14.1,1.25,21.99,1.25,57.25.42,94.58-31.11,94.58-97.9.41-58.08-33.6-88.77-87.94-88.77-14.1,0-23.23,1.25-28.62,2.49v182.94Z"/>
  <path class="cls-4" d="m1570.55,2935.52h-102.88v66.37h114.91v51.85h-178.38v-279.59h172.57v51.85h-109.1v58.08h102.88v51.44Z"/>
  <path class="cls-4" d="m542.83,1978.43h170.91v51.85h-107.44v63.88h100.39v51.44h-100.39v112.42h-63.47v-279.59Z"/>
  <path class="cls-4" d="m994.99,3397.11c-19.5,6.64-56.42,15.76-93.34,15.76-51.02,0-87.94-12.86-113.66-37.75-25.72-24.06-39.82-60.56-39.41-101.63.41-92.92,68.03-146.02,159.71-146.02,36.09,0,63.88,7.05,77.57,13.69l-13.27,50.61c-15.35-6.64-34.43-12.03-65.13-12.03-52.68,0-92.51,29.87-92.51,90.43s36.09,91.68,87.94,91.68c14.52,0,26.13-1.66,31.11-4.15v-58.49h-43.14v-49.36h104.12v147.26Z"/>
  <path class="cls-4" d="m227.97,867.47v107.44h104.12v-107.44h63.05v279.59h-63.05v-116.98h-104.12v116.98h-63.47v-279.59h63.47Z"/>
  <path class="cls-4" d="m1393.63,1978.43v279.59h-63.47v-279.59h63.47Z"/>
  <path class="cls-4" d="m2988.41,390.64h63.05v176.71c0,79.65-38.16,107.44-99.56,107.44-14.52,0-33.6-2.49-46.05-6.64l7.05-51.02c8.71,2.9,19.91,4.98,32.36,4.98,26.55,0,43.14-12.03,43.14-55.59v-175.89Z"/>
  <path class="cls-4" d="m3928.81,1351.94h62.64v123.62h1.24c6.22-10.79,12.86-20.74,19.08-30.7l63.47-92.92h77.57l-92.51,119.05,97.48,160.54h-73.84l-68.45-120.71-24.06,29.45v91.26h-62.64v-279.59Z"/>
  <path class="cls-4" d="m1873.58,1978.43h63.47v226.49h111.17v53.1h-174.64v-279.59Z"/>
  <path class="cls-4" d="m1132.71,1524.5c-1.24-33.6-2.49-74.25-2.49-114.91h-1.24c-8.71,35.67-20.33,75.5-31.11,108.27l-34.02,109.1h-49.36l-29.87-108.27c-9.13-32.77-18.67-72.59-25.3-109.1h-.83c-1.66,37.75-2.9,80.89-4.98,115.74l-4.98,106.2h-58.49l17.84-279.59h84.21l27.38,93.33c8.71,32.36,17.42,67.2,23.64,99.97h1.24c7.88-32.36,17.42-69.28,26.55-100.39l29.87-92.92h82.55l15.35,279.59h-61.81l-4.15-107.02Z"/>
  <path class="cls-4" d="m2967.05,2990.58v-279.59h73.84l58.08,102.46c16.59,29.45,33.19,64.3,45.63,95.82h1.24c-4.15-36.92-5.39-74.67-5.39-116.57v-81.72h58.08v279.59h-66.37l-59.73-107.85c-16.59-29.87-34.85-65.96-48.54-98.73l-1.24.42c1.66,36.92,2.49,76.33,2.49,121.96v84.21h-58.07Z"/>
  <path class="cls-4" d="m4063.22,3127.47c0,91.68-55.59,147.26-137.31,147.26s-131.5-62.64-131.5-142.29c0-83.79,53.51-146.43,136.06-146.43s132.74,64.3,132.74,141.46Zm-202.02,3.73c0,54.76,25.72,93.34,68.03,93.34s67.2-40.65,67.2-95c0-50.19-24.06-93.34-67.62-93.34s-67.62,40.65-67.62,95Z"/>
  <path class="cls-4" d="m3020.15,1982.17c19.5-3.32,46.88-5.81,85.45-5.81s66.79,7.47,85.45,22.4c17.84,14.1,29.87,37.33,29.87,64.71s-9.13,50.61-25.72,66.37c-21.57,20.33-53.51,29.45-90.85,29.45-8.3,0-15.76-.41-21.57-1.24v99.97h-62.64v-275.86Zm62.64,126.94c5.39,1.24,12.03,1.66,21.15,1.66,33.6,0,54.34-17.01,54.34-45.63,0-25.72-17.84-41.07-49.37-41.07-12.86,0-21.57,1.24-26.13,2.49v82.55Z"/>
  <path class="cls-4" d="m3910.56,419.26c-39.82-11.62-73.01-23.65-110.34-39.41-6.22-2.49-12.86-3.73-19.5-4.15-63.05-4.15-121.96-50.61-121.96-141.87,0-83.8,53.1-146.85,136.48-146.85s132.33,64.71,132.33,141.04c0,63.47-29.45,108.27-66.37,124.86v1.66c21.57,6.22,45.63,11.2,67.62,15.76l-18.25,48.95Zm-49.78-188.75c0-51.02-24.06-93.33-67.2-93.33s-68.03,42.31-68.03,94.58c-.42,53.1,25.3,93.75,67.62,93.75s67.62-40.24,67.62-95Z"/>
  <path class="cls-4" d="m4378.48,1636.47c20.33-3.32,50.61-5.81,84.21-5.81,41.48,0,70.52,6.22,90.43,21.99,16.59,13.27,25.72,32.77,25.72,58.49,0,35.68-25.3,60.15-49.36,68.86v1.24c19.5,7.88,30.28,26.55,37.33,52.27,8.71,31.53,17.42,68.03,22.81,78.82h-64.71c-4.56-7.88-11.2-30.7-19.5-65.13-7.47-34.85-19.5-44.39-45.22-44.8h-19.08v109.93h-62.64v-275.86Zm62.64,120.3h24.89c31.53,0,50.19-15.76,50.19-40.24,0-25.72-17.42-38.58-46.46-38.99-15.35,0-24.06,1.24-28.62,2.07v77.16Z"/>
  <path class="cls-4" d="m3806.65,2192.9c17.01,8.71,43.14,17.42,70.11,17.42,29.04,0,44.38-12.03,44.38-30.28s-13.27-27.38-46.88-39.41c-46.46-16.18-76.74-41.9-76.74-82.55,0-47.71,39.82-84.21,105.78-84.21,31.53,0,54.76,6.64,71.35,14.1l-14.11,51.02c-11.2-5.39-31.11-13.27-58.49-13.27s-40.65,12.44-40.65,26.96c0,17.84,15.76,25.72,51.85,39.41,49.36,18.25,72.59,43.97,72.59,83.38,0,46.88-36.09,86.7-112.83,86.7-31.94,0-63.47-8.3-79.23-17.01l12.86-52.27Z"/>
  <path class="cls-4" d="m2677.5,1339.95h-75.08v-53.1h214.88v53.1h-76.33v226.49h-63.47v-226.49Z"/>
  <path class="cls-4" d="m4547.52,413.66v160.95c0,48.12,18.25,72.59,50.61,72.59s51.44-23.23,51.44-72.59v-160.95h63.05v156.8c0,86.28-43.56,127.35-116.56,127.35s-112-38.99-112-128.18v-155.97h63.47Z"/>
  <path class="cls-4" d="m4744.35,3270.17l-89.6-279.59h69.28l34.02,118.22c9.54,33.19,18.25,65.13,24.89,99.97h1.24c7.05-33.6,15.76-66.79,25.3-98.73l35.68-119.47h67.2l-94.17,279.59h-73.84Z"/>
  <path class="cls-4" d="m2312.04,3333.34l-66.37-279.59h67.62l21.16,115.32c6.22,33.19,12.03,69.28,16.59,97.48h.83c4.56-30.28,11.2-63.88,18.25-98.31l23.64-114.49h67.2l22.4,117.81c6.22,32.77,10.79,62.64,14.94,93.75h.83c4.15-31.11,10.37-63.88,16.18-97.07l22.81-114.49h64.3l-72.18,279.59h-68.45l-23.64-120.3c-5.39-28.21-9.96-54.34-13.28-86.28h-.83c-4.98,31.53-9.54,58.08-16.18,86.28l-26.55,120.3h-69.28Z"/>
  <path class="cls-4" d="m1884.78,1142.7l-25.3-50.61c-10.37-19.5-17.01-34.02-24.89-50.19h-.83c-5.81,16.18-12.86,30.7-21.57,50.19l-23.23,50.61h-72.18l80.89-141.46-77.99-138.14h72.59l24.47,51.02c8.3,17.01,14.52,30.7,21.16,46.46h.83c6.64-17.84,12.03-30.28,19.08-46.46l23.64-51.02h72.18l-78.82,136.48,82.96,143.11h-73.01Z"/>
  <path class="cls-4" d="m246.43,2913.95v-114.49l-88.36-165.1h72.18l28.62,67.2c8.71,20.33,14.52,35.26,21.57,53.51h.83c6.22-17.42,12.86-33.6,21.16-53.51l28.21-67.2h70.94l-92.09,163.03v116.57h-63.05Z"/>
  <path class="cls-4" d="m4223.75,2740.14l133.16-191.65v-1.66h-120.71v-52.27h202.85v36.5l-130.25,189.16v1.66h132.33v52.27h-217.37v-34.02Z"/>
  <path class="cls-2" d="m4631.42,1262.2l-11.03,39.76h-36.31l47.34-154.9h45.97l48.03,154.9h-37.69l-11.95-39.76h-44.36Zm39.3-26.2l-9.65-32.87c-2.76-9.19-5.52-20.68-7.81-29.88h-.46c-2.3,9.19-4.6,20.91-7.12,29.88l-9.19,32.87h34.24Z"/>
  <path class="cls-2" d="m3601.31,2493.09c9.19-1.84,27.81-3.22,45.28-3.22,21.37,0,34.47,2.07,45.74,8.73,10.8,5.75,18.62,16.32,18.62,30.34s-8.04,26.66-25.51,33.09v.46c17.7,4.83,30.8,18.16,30.8,38.15,0,14.02-6.43,25.05-16.09,32.87-11.26,8.96-30.11,14.02-60.9,14.02-17.24,0-30.11-1.15-37.92-2.3v-152.14Zm34.7,59.29h11.49c18.39,0,28.27-7.58,28.27-19.08s-8.96-17.93-24.82-17.93c-7.58,0-11.95.46-14.94.92v36.08Zm0,68.72c3.45.46,7.58.46,13.56.46,15.86,0,29.88-5.98,29.88-22.29s-14.02-21.83-31.49-21.83h-11.95v43.67Z"/>
  <path class="cls-2" d="m1103.87,1155.97c-6.44,3.22-20.91,6.67-39.76,6.67-53.55,0-81.13-33.32-81.13-77.45,0-52.86,37.69-82.28,84.58-82.28,18.16,0,31.95,3.68,38.15,6.9l-7.12,27.81c-7.12-2.99-17.01-5.75-29.42-5.75-27.81,0-49.41,16.78-49.41,51.25,0,31.03,18.39,50.56,49.64,50.56,10.57,0,22.29-2.3,29.19-5.06l5.29,27.35Z"/>
  <path class="cls-2" d="m4155.26,155.73c12.87-2.07,29.65-3.22,47.34-3.22,29.42,0,48.49,5.29,63.43,16.55,16.09,11.95,26.2,31.03,26.2,58.38,0,29.65-10.8,50.1-25.74,62.74-16.32,13.56-41.14,19.99-71.48,19.99-18.16,0-31.03-1.15-39.76-2.3v-152.14Zm35.16,126.4c2.99.69,7.81.69,12.18.69,31.72.23,52.4-17.24,52.4-54.24.23-32.18-18.62-49.18-48.72-49.18-7.81,0-12.87.69-15.86,1.38v101.35Z"/>
  <path class="cls-2" d="m4266.5,1019.21h-57v36.77h63.66v28.73h-98.83v-154.9h95.61v28.73h-60.44v32.18h57v28.5Z"/>
  <path class="cls-2" d="m3745.82,698.39h94.69v28.73h-59.52v35.39h55.62v28.5h-55.62v62.28h-35.16v-154.9Z"/>
  <path class="cls-2" d="m4851.81,2691.89c-10.8,3.68-31.26,8.73-51.71,8.73-28.27,0-48.72-7.12-62.97-20.91-14.25-13.33-22.06-33.55-21.83-56.31.23-51.48,37.69-80.9,88.48-80.9,19.99,0,35.39,3.91,42.98,7.58l-7.35,28.04c-8.5-3.68-19.08-6.66-36.08-6.66-29.19,0-51.25,16.55-51.25,50.1s19.99,50.79,48.72,50.79c8.04,0,14.48-.92,17.24-2.3v-32.41h-23.9v-27.35h57.69v81.59Z"/>
  <path class="cls-2" d="m1929.06,478.29v59.52h57.69v-59.52h34.93v154.9h-34.93v-64.81h-57.69v64.81h-35.16v-154.9h35.16Z"/>
  <path class="cls-2" d="m4607.21,2180.57v154.9h-35.16v-154.9h35.16Z"/>
  <path class="cls-2" d="m299.03,311.92h34.93v97.91c0,44.13-21.14,59.53-55.16,59.53-8.04,0-18.62-1.38-25.51-3.68l3.91-28.27c4.83,1.61,11.03,2.76,17.93,2.76,14.71,0,23.9-6.67,23.9-30.8v-97.45Z"/>
  <path class="cls-2" d="m909.44,2586.66h34.7v68.49h.69c3.45-5.98,7.12-11.49,10.57-17.01l35.16-51.48h42.98l-51.25,65.96,54.01,88.94h-40.91l-37.92-66.88-13.33,16.32v50.56h-34.7v-154.9Z"/>
  <path class="cls-2" d="m1445.01,248.06h35.16v125.48h61.59v29.42h-96.76v-154.9Z"/>
  <path class="cls-2" d="m2323.71,1584.6c-.69-18.62-1.38-41.14-1.38-63.66h-.69c-4.83,19.77-11.26,41.83-17.24,59.98l-18.85,60.44h-27.35l-16.55-59.98c-5.06-18.16-10.34-40.22-14.02-60.44h-.46c-.92,20.91-1.61,44.82-2.76,64.12l-2.76,58.84h-32.41l9.88-154.9h46.65l15.17,51.71c4.83,17.93,9.65,37.23,13.1,55.39h.69c4.37-17.93,9.65-38.38,14.71-55.62l16.55-51.48h45.74l8.5,154.9h-34.24l-2.3-59.29Z"/>
  <path class="cls-2" d="m3386.2,402.96v-154.9h40.91l32.18,56.77c9.19,16.32,18.39,35.62,25.28,53.09h.69c-2.3-20.45-2.99-41.37-2.99-64.58v-45.28h32.18v154.9h-36.77l-33.09-59.75c-9.19-16.55-19.31-36.54-26.89-54.7l-.69.23c.92,20.45,1.38,42.29,1.38,67.57v46.65h-32.18Z"/>
  <path class="cls-2" d="m3414.02,1507.76c0,50.79-30.8,81.59-76.07,81.59s-72.86-34.7-72.86-78.83c0-46.42,29.65-81.13,75.38-81.13s73.54,35.62,73.54,78.37Zm-111.93,2.07c0,30.34,14.25,51.71,37.69,51.71s37.23-22.52,37.23-52.63c0-27.81-13.33-51.71-37.46-51.71s-37.46,22.52-37.46,52.63Z"/>
  <path class="cls-2" d="m2480.5,623.01c10.8-1.84,25.97-3.22,47.34-3.22s37,4.14,47.34,12.41c9.88,7.81,16.55,20.68,16.55,35.85s-5.06,28.04-14.25,36.77c-11.95,11.26-29.65,16.32-50.33,16.32-4.6,0-8.73-.23-11.95-.69v55.39h-34.7v-152.83Zm34.7,70.33c2.99.69,6.66.92,11.72.92,18.62,0,30.11-9.42,30.11-25.28,0-14.25-9.88-22.75-27.35-22.75-7.12,0-11.95.69-14.48,1.38v45.74Z"/>
  <path class="cls-2" d="m2621.73,2756.16c-22.06-6.44-40.45-13.1-61.13-21.83-3.45-1.38-7.12-2.07-10.8-2.3-34.93-2.3-67.57-28.04-67.57-78.6,0-46.42,29.42-81.36,75.61-81.36s73.32,35.85,73.32,78.14c0,35.16-16.32,59.98-36.77,69.18v.92c11.95,3.45,25.28,6.21,37.46,8.73l-10.11,27.12Zm-27.58-104.57c0-28.27-13.33-51.71-37.23-51.71s-37.69,23.44-37.69,52.4c-.23,29.42,14.02,51.94,37.46,51.94s37.46-22.29,37.46-52.63Z"/>
  <path class="cls-2" d="m1716.78,3195.36c11.26-1.84,28.04-3.22,46.65-3.22,22.98,0,39.07,3.45,50.1,12.18,9.19,7.35,14.25,18.16,14.25,32.41,0,19.77-14.02,33.33-27.35,38.15v.69c10.8,4.37,16.78,14.71,20.68,28.96,4.83,17.47,9.65,37.69,12.64,43.67h-35.85c-2.53-4.37-6.2-17.01-10.8-36.08-4.14-19.31-10.8-24.59-25.05-24.82h-10.57v60.9h-34.7v-152.83Zm34.7,66.65h13.79c17.47,0,27.81-8.73,27.81-22.29,0-14.25-9.65-21.37-25.74-21.6-8.5,0-13.33.69-15.86,1.15v42.75Z"/>
  <path class="cls-2" d="m1670.69,1719.03c9.42,4.83,23.9,9.65,38.84,9.65,16.09,0,24.59-6.66,24.59-16.78s-7.35-15.17-25.97-21.83c-25.74-8.96-42.52-23.21-42.52-45.74,0-26.43,22.06-46.65,58.61-46.65,17.47,0,30.34,3.68,39.53,7.81l-7.81,28.27c-6.2-2.99-17.24-7.35-32.41-7.35s-22.52,6.89-22.52,14.94c0,9.88,8.73,14.25,28.73,21.83,27.35,10.11,40.22,24.36,40.22,46.2,0,25.97-19.99,48.03-62.51,48.03-17.7,0-35.16-4.6-43.9-9.42l7.12-28.96Z"/>
  <path class="cls-2" d="m3432.39,3005.71h-41.6v-29.42h119.05v29.42h-42.29v125.48h-35.16v-125.48Z"/>
  <path class="cls-2" d="m3092.38,3269.48v89.17c0,26.66,10.11,40.22,28.04,40.22s28.5-12.87,28.5-40.22v-89.17h34.93v86.87c0,47.8-24.13,70.56-64.58,70.56s-62.05-21.6-62.05-71.02v-86.41h35.16Z"/>
  <path class="cls-2" d="m212.38,2101.52l-49.64-154.9h38.38l18.85,65.5c5.29,18.39,10.11,36.08,13.79,55.39h.69c3.91-18.62,8.73-37,14.02-54.7l19.77-66.19h37.23l-52.17,154.9h-40.91Z"/>
  <path class="cls-2" d="m4161.7,3352.19l-36.77-154.9h37.46l11.72,63.89c3.45,18.39,6.67,38.38,9.19,54.01h.46c2.53-16.78,6.2-35.39,10.11-54.47l13.1-63.43h37.23l12.41,65.27c3.45,18.16,5.98,34.7,8.27,51.94h.46c2.3-17.24,5.75-35.39,8.96-53.78l12.64-63.43h35.62l-39.99,154.9h-37.92l-13.1-66.65c-2.99-15.63-5.52-30.11-7.35-47.8h-.46c-2.76,17.47-5.29,32.18-8.96,47.8l-14.71,66.65h-38.38Z"/>
  <path class="cls-2" d="m467.03,1429.39l-14.02-28.04c-5.74-10.8-9.42-18.85-13.79-27.81h-.46c-3.22,8.96-7.12,17.01-11.95,27.81l-12.87,28.04h-39.99l44.82-78.37-43.21-76.53h40.22l13.56,28.27c4.6,9.42,8.04,17.01,11.72,25.74h.46c3.68-9.88,6.66-16.78,10.57-25.74l13.1-28.27h39.99l-43.67,75.61,45.97,79.29h-40.45Z"/>
  <path class="cls-2" d="m4765.05,308.8v-63.43l-48.95-91.47h39.99l15.86,37.23c4.83,11.26,8.04,19.54,11.95,29.65h.46c3.45-9.65,7.12-18.62,11.72-29.65l15.63-37.23h39.3l-51.02,90.32v64.58h-34.93Z"/>
  <path class="cls-2" d="m2363.83,2320.78l73.77-106.18v-.92h-66.88v-28.96h112.38v20.22l-72.16,104.8v.92h73.31v28.96h-120.43v-18.85Z"/>
  <path class="cls-1" d="m270.17,2422.01l-11.09,39.98h-36.51l47.6-155.74h46.21l48.29,155.74h-37.9l-12.02-39.98h-44.6Zm39.51-26.34l-9.71-33.04c-2.77-9.24-5.55-20.8-7.86-30.04h-.46c-2.31,9.24-4.62,21.03-7.16,30.04l-9.24,33.04h34.43Z"/>
  <path class="cls-1" d="m2631.78,926.88c9.24-1.85,27.96-3.24,45.52-3.24,21.49,0,34.66,2.08,45.98,8.78,10.86,5.78,18.72,16.41,18.72,30.5s-8.09,26.8-25.65,33.27v.46c17.79,4.85,30.96,18.25,30.96,38.36,0,14.1-6.47,25.19-16.18,33.04-11.32,9.01-30.27,14.1-61.23,14.1-17.33,0-30.27-1.16-38.13-2.31v-152.97Zm34.89,59.62h11.55c18.49,0,28.42-7.63,28.42-19.18s-9.01-18.02-24.96-18.02c-7.63,0-12.02.46-15.02.92v36.28Zm0,69.09c3.47.46,7.63.46,13.63.46,15.94,0,30.04-6.01,30.04-22.41s-14.1-21.95-31.66-21.95h-12.02v43.9Z"/>
  <path class="cls-1" d="m2851.64,253c-6.47,3.24-21.03,6.7-39.98,6.7-53.84,0-81.57-33.51-81.57-77.87,0-53.15,37.9-82.72,85.04-82.72,18.25,0,32.12,3.7,38.36,6.93l-7.16,27.96c-7.16-3-17.1-5.78-29.58-5.78-27.96,0-49.68,16.87-49.68,51.53,0,31.19,18.49,50.84,49.91,50.84,10.63,0,22.41-2.31,29.35-5.08l5.31,27.5Z"/>
  <path class="cls-1" d="m2930.26,1601.52c12.94-2.08,29.81-3.24,47.6-3.24,29.58,0,48.76,5.31,63.78,16.64,16.18,12.02,26.34,31.19,26.34,58.69,0,29.81-10.86,50.37-25.88,63.08-16.41,13.63-41.36,20.1-71.86,20.1-18.25,0-31.19-1.16-39.98-2.31v-152.97Zm35.35,127.09c3,.69,7.86.69,12.25.69,31.89.23,52.68-17.33,52.68-54.53.23-32.35-18.72-49.45-48.99-49.45-7.86,0-12.94.69-15.94,1.39v101.9Z"/>
  <path class="cls-1" d="m2153.84,738.65h-57.31v36.97h64.01v28.88h-99.36v-155.74h96.13v28.88h-60.77v32.35h57.31v28.65Z"/>
  <path class="cls-1" d="m3631.85,1520.41h95.2v28.88h-59.85v35.59h55.92v28.65h-55.92v62.62h-35.35v-155.74Z"/>
  <path class="cls-1" d="m2215.37,2138.12c-10.86,3.7-31.43,8.78-51.99,8.78-28.42,0-48.99-7.16-63.31-21.03-14.33-13.4-22.18-33.74-21.95-56.61.23-51.76,37.9-81.34,88.96-81.34,20.1,0,35.59,3.93,43.21,7.63l-7.39,28.19c-8.55-3.7-19.18-6.7-36.28-6.7-29.35,0-51.53,16.64-51.53,50.37s20.1,51.07,48.99,51.07c8.09,0,14.56-.92,17.33-2.31v-32.58h-24.03v-27.5h58v82.03Z"/>
  <path class="cls-1" d="m4696.53,1921.23v59.85h58v-59.85h35.12v155.74h-35.12v-65.16h-58v65.16h-35.35v-155.74h35.35Z"/>
  <path class="cls-1" d="m3697.13,3222.4v155.74h-35.35v-155.74h35.35Z"/>
  <path class="cls-1" d="m2735.53,2105.58h35.12v98.44c0,44.37-21.26,59.85-55.46,59.85-8.09,0-18.72-1.39-25.65-3.7l3.93-28.42c4.85,1.62,11.09,2.77,18.02,2.77,14.79,0,24.03-6.7,24.03-30.96v-97.98Z"/>
  <path class="cls-1" d="m1329.85,3144.53h34.89v68.86h.69c3.47-6.01,7.16-11.55,10.63-17.1l35.35-51.76h43.21l-51.53,66.32,54.3,89.43h-41.13l-38.13-67.24-13.4,16.41v50.84h-34.89v-155.74Z"/>
  <path class="cls-1" d="m3512.44,1868.74h35.35v126.17h61.93v29.58h-97.28v-155.74Z"/>
  <path class="cls-1" d="m3499.54,688.49c-.69-18.72-1.39-41.36-1.39-64.01h-.69c-4.85,19.87-11.32,42.06-17.33,60.31l-18.95,60.77h-27.5l-16.64-60.31c-5.08-18.26-10.4-40.44-14.1-60.77h-.46c-.92,21.03-1.62,45.06-2.77,64.47l-2.77,59.15h-32.58l9.94-155.74h46.91l15.25,51.99c4.85,18.02,9.7,37.43,13.17,55.69h.69c4.39-18.02,9.71-38.59,14.79-55.92l16.64-51.76h45.98l8.55,155.74h-34.43l-2.31-59.62Z"/>
  <path class="cls-1" d="m4190.54,2262.59v-155.74h41.13l32.35,57.08c9.24,16.41,18.49,35.82,25.42,53.38h.69c-2.31-20.57-3-41.59-3-64.93v-45.52h32.35v155.74h-36.97l-33.27-60.08c-9.24-16.64-19.41-36.74-27.04-55l-.69.23c.92,20.57,1.39,42.52,1.39,67.94v46.91h-32.35Z"/>
  <path class="cls-1" d="m3200.63,434.91v-155.74h41.13l32.35,57.08c9.24,16.41,18.49,35.82,25.42,53.38h.69c-2.31-20.57-3-41.59-3-64.93v-45.52h32.35v155.74h-36.97l-33.27-60.08c-9.24-16.64-19.41-36.74-27.04-55l-.69.23c.92,20.57,1.39,42.52,1.39,67.94v46.91h-32.35Z"/>
  <path class="cls-1" d="m4199.79,644.6c0,51.07-30.96,82.03-76.49,82.03s-73.25-34.89-73.25-79.26c0-46.68,29.81-81.57,75.79-81.57s73.94,35.82,73.94,78.8Zm-112.53,2.08c0,30.5,14.33,51.99,37.9,51.99s37.43-22.64,37.43-52.92c0-27.96-13.4-51.99-37.67-51.99s-37.66,22.64-37.66,52.92Z"/>
  <path class="cls-1" d="m2964.23,964.41c10.86-1.85,26.11-3.24,47.6-3.24s37.2,4.16,47.6,12.48c9.94,7.86,16.64,20.8,16.64,36.05s-5.08,28.19-14.33,36.97c-12.02,11.32-29.81,16.41-50.6,16.41-4.62,0-8.78-.23-12.02-.69v55.69h-34.89v-153.66Zm34.89,70.71c3,.69,6.7.92,11.78.92,18.72,0,30.27-9.47,30.27-25.42,0-14.33-9.94-22.88-27.5-22.88-7.16,0-12.02.69-14.56,1.39v45.98Z"/>
  <path class="cls-1" d="m1395.21,912.51c-22.18-6.47-40.67-13.17-61.47-21.95-3.47-1.39-7.16-2.08-10.86-2.31-35.12-2.31-67.94-28.19-67.94-79.03,0-46.68,29.58-81.8,76.02-81.8s73.71,36.05,73.71,78.57c0,35.35-16.41,60.31-36.97,69.55v.92c12.02,3.47,25.42,6.24,37.66,8.78l-10.17,27.27Zm-27.73-105.14c0-28.42-13.4-51.99-37.43-51.99s-37.9,23.57-37.9,52.68c-.23,29.58,14.1,52.22,37.66,52.22s37.67-22.41,37.67-52.92Z"/>
  <path class="cls-1" d="m125.57,3199.52c11.32-1.85,28.19-3.24,46.91-3.24,23.11,0,39.28,3.47,50.37,12.25,9.24,7.39,14.33,18.25,14.33,32.58,0,19.87-14.1,33.51-27.5,38.36v.69c10.86,4.39,16.87,14.79,20.8,29.12,4.85,17.56,9.7,37.9,12.71,43.9h-36.05c-2.54-4.39-6.24-17.1-10.86-36.28-4.16-19.41-10.86-24.73-25.19-24.96h-10.63v61.23h-34.89v-153.66Zm34.89,67.01h13.86c17.56,0,27.96-8.78,27.96-22.41,0-14.33-9.7-21.49-25.88-21.72-8.55,0-13.4.69-15.94,1.16v42.98Z"/>
  <path class="cls-1" d="m2377.71,272.82c9.48,4.85,24.03,9.7,39.05,9.7,16.17,0,24.72-6.7,24.72-16.87s-7.39-15.25-26.11-21.95c-25.88-9.01-42.75-23.34-42.75-45.98,0-26.57,22.18-46.91,58.92-46.91,17.56,0,30.5,3.7,39.74,7.86l-7.86,28.42c-6.24-3-17.33-7.39-32.58-7.39s-22.64,6.93-22.64,15.02c0,9.94,8.78,14.33,28.88,21.95,27.5,10.17,40.44,24.49,40.44,46.45,0,26.11-20.1,48.29-62.85,48.29-17.79,0-35.35-4.62-44.14-9.47l7.16-29.12Z"/>
  <path class="cls-1" d="m163.35,1668.86h-41.82v-29.58h119.7v29.58h-42.52v126.17h-35.35v-126.17Z"/>
  <path class="cls-1" d="m1008,1999.1v89.66c0,26.8,10.17,40.44,28.19,40.44s28.65-12.94,28.65-40.44v-89.66h35.12v87.35c0,48.06-24.26,70.94-64.93,70.94s-62.39-21.72-62.39-71.4v-86.88h35.35Z"/>
  <path class="cls-1" d="m1694.94,2491.22l-49.91-155.74h38.59l18.95,65.86c5.31,18.49,10.17,36.28,13.86,55.69h.69c3.93-18.72,8.78-37.2,14.1-55l19.87-66.55h37.43l-52.45,155.74h-41.13Z"/>
  <path class="cls-1" d="m4453.81,1039.05l-36.97-155.74h37.66l11.78,64.24c3.47,18.49,6.7,38.59,9.24,54.3h.46c2.54-16.87,6.24-35.59,10.17-54.76l13.17-63.78h37.43l12.48,65.62c3.47,18.25,6.01,34.89,8.32,52.22h.46c2.31-17.33,5.78-35.59,9.01-54.07l12.71-63.78h35.82l-40.21,155.74h-38.13l-13.17-67.01c-3-15.71-5.55-30.27-7.39-48.06h-.46c-2.77,17.56-5.31,32.35-9.01,48.06l-14.79,67.01h-38.59Z"/>
  <path class="cls-1" d="m189.2,188.71l-14.1-28.19c-5.78-10.86-9.47-18.95-13.86-27.96h-.46c-3.23,9.01-7.16,17.1-12.02,27.96l-12.94,28.19h-40.21l45.06-78.8-43.44-76.95h40.44l13.63,28.42c4.62,9.47,8.09,17.1,11.78,25.88h.46c3.7-9.94,6.7-16.87,10.63-25.88l13.17-28.42h40.21l-43.9,76.02,46.21,79.72h-40.67Z"/>
  <path class="cls-1" d="m2029.62,3439.79v-63.78l-49.22-91.97h40.21l15.94,37.43c4.85,11.32,8.09,19.64,12.02,29.81h.46c3.47-9.71,7.16-18.72,11.78-29.81l15.71-37.43h39.51l-51.3,90.81v64.93h-35.12Z"/>
  <path class="cls-1" d="m3800.24,1141.69l74.17-106.76v-.92h-67.24v-29.11h113v20.33l-72.56,105.37v.92h73.71v29.12h-121.08v-18.95Z"/>
  <path class="cls-1" d="m559.32,2997.29l-6.14,22.15h-20.23l26.37-86.29h25.6l26.76,86.29h-21l-6.66-22.15h-24.71Zm21.89-14.59l-5.38-18.31c-1.54-5.12-3.07-11.52-4.35-16.64h-.26c-1.28,5.12-2.56,11.65-3.97,16.64l-5.12,18.31h19.08Z"/>
  <path class="cls-1" d="m4819.8,811.17c5.12-1.02,15.49-1.79,25.22-1.79,11.91,0,19.2,1.15,25.48,4.86,6.02,3.2,10.37,9.09,10.37,16.9s-4.48,14.85-14.21,18.44v.26c9.86,2.69,17.15,10.11,17.15,21.25,0,7.81-3.58,13.95-8.96,18.31-6.27,4.99-16.77,7.81-33.93,7.81-9.6,0-16.77-.64-21.12-1.28v-84.75Zm19.33,33.03h6.4c10.24,0,15.75-4.22,15.75-10.63s-4.99-9.99-13.83-9.99c-4.22,0-6.66.26-8.32.51v20.1Zm0,38.28c1.92.26,4.22.26,7.55.26,8.83,0,16.64-3.33,16.64-12.42s-7.81-12.16-17.54-12.16h-6.66v24.32Z"/>
  <path class="cls-1" d="m1994.06,1791.25c-3.58,1.79-11.65,3.71-22.15,3.71-29.83,0-45.19-18.56-45.19-43.14,0-29.45,21-45.83,47.11-45.83,10.11,0,17.8,2.05,21.25,3.84l-3.97,15.49c-3.97-1.66-9.47-3.2-16.39-3.2-15.49,0-27.52,9.35-27.52,28.55,0,17.28,10.24,28.16,27.65,28.16,5.89,0,12.42-1.28,16.26-2.82l2.94,15.23Z"/>
  <path class="cls-1" d="m1983.53,1384.53c7.17-1.15,16.51-1.79,26.37-1.79,16.39,0,27.01,2.94,35.33,9.22,8.96,6.66,14.59,17.28,14.59,32.52,0,16.51-6.02,27.91-14.34,34.95-9.09,7.55-22.92,11.14-39.81,11.14-10.11,0-17.28-.64-22.15-1.28v-84.75Zm19.59,70.41c1.66.38,4.35.38,6.79.38,17.67.13,29.19-9.6,29.19-30.21.13-17.92-10.37-27.4-27.14-27.4-4.35,0-7.17.38-8.83.77v56.46Z"/>
  <path class="cls-1" d="m48.85,1244.73c7.17-1.15,16.51-1.79,26.37-1.79,16.39,0,27.01,2.94,35.33,9.22,8.96,6.66,14.59,17.28,14.59,32.52,0,16.51-6.02,27.91-14.34,34.95-9.09,7.55-22.92,11.14-39.81,11.14-10.11,0-17.28-.64-22.15-1.28v-84.75Zm19.59,70.41c1.66.38,4.35.38,6.79.38,17.67.13,29.19-9.6,29.19-30.21.13-17.92-10.37-27.4-27.14-27.4-4.35,0-7.17.38-8.83.77v56.46Z"/>
  <path class="cls-1" d="m2384.06,1953.27h-31.75v20.48h35.46v16h-55.05v-86.29h53.26v16h-33.67v17.92h31.75v15.87Z"/>
  <path class="cls-1" d="m1431.03,1308.79h52.75v16h-33.16v19.72h30.98v15.87h-30.98v34.69h-19.59v-86.29Z"/>
  <path class="cls-1" d="m2867.84,3313.91c-6.02,2.05-17.41,4.86-28.81,4.86-15.75,0-27.14-3.97-35.08-11.65-7.94-7.43-12.29-18.69-12.16-31.37.13-28.68,21-45.06,49.29-45.06,11.14,0,19.72,2.18,23.94,4.22l-4.1,15.62c-4.74-2.05-10.63-3.71-20.1-3.71-16.26,0-28.55,9.22-28.55,27.91s11.14,28.29,27.14,28.29c4.48,0,8.07-.51,9.6-1.28v-18.05h-13.31v-15.23h32.13v45.45Z"/>
  <path class="cls-1" d="m495.77,3275.63v33.16h32.13v-33.16h19.46v86.29h-19.46v-36.1h-32.13v36.1h-19.59v-86.29h19.59Z"/>
  <path class="cls-1" d="m1967.58,2870.81v86.29h-19.59v-86.29h19.59Z"/>
  <path class="cls-1" d="m2733.11,2938.85h19.46v54.54c0,24.58-11.78,33.16-30.73,33.16-4.48,0-10.37-.77-14.21-2.05l2.18-15.75c2.69.9,6.14,1.54,9.99,1.54,8.19,0,13.31-3.71,13.31-17.16v-54.28Z"/>
  <path class="cls-1" d="m507.49,145.57h19.33v38.15h.38c1.92-3.33,3.97-6.4,5.89-9.47l19.59-28.68h23.94l-28.55,36.74,30.09,49.54h-22.79l-21.12-37.25-7.43,9.09v28.16h-19.33v-86.29Z"/>
  <path class="cls-1" d="m1078.76,239.68h19.59v69.9h34.31v16.39h-53.9v-86.29Z"/>
  <path class="cls-1" d="m733.06,873.22c-.38-10.37-.77-22.92-.77-35.46h-.38c-2.69,11.01-6.27,23.3-9.6,33.41l-10.5,33.67h-15.23l-9.22-33.41c-2.82-10.11-5.76-22.4-7.81-33.67h-.26c-.51,11.65-.9,24.96-1.54,35.72l-1.54,32.77h-18.05l5.5-86.29h25.99l8.45,28.8c2.69,9.99,5.38,20.74,7.3,30.85h.38c2.43-9.99,5.38-21.38,8.19-30.98l9.22-28.68h25.48l4.74,86.29h-19.08l-1.28-33.03Z"/>
  <path class="cls-1" d="m2328.11,1125.91v-86.29h22.79l17.92,31.62c5.12,9.09,10.24,19.84,14.08,29.57h.38c-1.28-11.39-1.66-23.04-1.66-35.97v-25.22h17.92v86.29h-20.48l-18.43-33.29c-5.12-9.22-10.75-20.36-14.98-30.47l-.38.13c.51,11.39.77,23.56.77,37.64v25.99h-17.92Z"/>
  <path class="cls-1" d="m2871.3,1794.13c0,28.29-17.15,45.45-42.38,45.45s-40.58-19.33-40.58-43.91c0-25.86,16.51-45.19,41.99-45.19s40.97,19.84,40.97,43.66Zm-62.35,1.15c0,16.9,7.94,28.8,21,28.8s20.74-12.55,20.74-29.32c0-15.49-7.42-28.8-20.87-28.8s-20.87,12.55-20.87,29.32Z"/>
  <path class="cls-1" d="m2819.7,2452.89c6.02-1.02,14.47-1.79,26.37-1.79s20.61,2.3,26.37,6.91c5.51,4.35,9.22,11.52,9.22,19.97s-2.82,15.62-7.94,20.48c-6.66,6.27-16.51,9.09-28.04,9.09-2.56,0-4.86-.13-6.66-.38v30.85h-19.33v-85.13Zm19.33,39.17c1.66.38,3.71.51,6.53.51,10.37,0,16.77-5.25,16.77-14.08,0-7.94-5.5-12.67-15.23-12.67-3.97,0-6.66.38-8.06.77v25.48Z"/>
  <path class="cls-1" d="m2721.58,706.44c6.02-1.02,14.47-1.79,26.37-1.79s20.61,2.3,26.37,6.91c5.51,4.35,9.22,11.52,9.22,19.97s-2.82,15.62-7.94,20.48c-6.66,6.27-16.51,9.09-28.04,9.09-2.56,0-4.86-.13-6.66-.38v30.85h-19.33v-85.13Zm19.33,39.17c1.66.38,3.71.51,6.53.51,10.37,0,16.77-5.25,16.77-14.08,0-7.94-5.51-12.67-15.23-12.67-3.97,0-6.66.38-8.07.77v25.48Z"/>
  <path class="cls-1" d="m654.59,2342.44c6.02-1.02,14.47-1.79,26.37-1.79s20.61,2.3,26.37,6.91c5.5,4.35,9.22,11.52,9.22,19.97s-2.82,15.62-7.94,20.48c-6.66,6.27-16.51,9.09-28.04,9.09-2.56,0-4.86-.13-6.66-.38v30.85h-19.33v-85.13Zm19.33,39.17c1.66.38,3.71.51,6.53.51,10.37,0,16.77-5.25,16.77-14.08,0-7.94-5.51-12.67-15.23-12.67-3.97,0-6.66.38-8.06.77v25.48Z"/>
  <path class="cls-1" d="m4887.04,1640.62c-12.29-3.58-22.53-7.3-34.05-12.16-1.92-.77-3.97-1.15-6.02-1.28-19.46-1.28-37.64-15.62-37.64-43.78,0-25.86,16.39-45.32,42.12-45.32s40.84,19.97,40.84,43.53c0,19.59-9.09,33.41-20.48,38.53v.51c6.66,1.92,14.08,3.46,20.87,4.86l-5.63,15.11Zm-15.36-58.25c0-15.75-7.42-28.8-20.74-28.8s-21,13.06-21,29.19c-.13,16.39,7.81,28.93,20.87,28.93s20.87-12.42,20.87-29.32Z"/>
  <path class="cls-1" d="m662.77,1598.95c6.27-1.02,15.62-1.79,25.99-1.79,12.8,0,21.76,1.92,27.91,6.78,5.12,4.1,7.94,10.11,7.94,18.05,0,11.01-7.81,18.56-15.23,21.25v.38c6.02,2.43,9.35,8.19,11.52,16.13,2.69,9.73,5.38,21,7.04,24.32h-19.97c-1.41-2.43-3.46-9.47-6.02-20.1-2.3-10.75-6.02-13.7-13.95-13.83h-5.89v33.93h-19.33v-85.13Zm19.33,37.13h7.68c9.73,0,15.49-4.86,15.49-12.42,0-7.94-5.38-11.91-14.34-12.03-4.74,0-7.42.38-8.83.64v23.81Z"/>
  <path class="cls-1" d="m3195.25,2362.73c5.25,2.69,13.31,5.38,21.64,5.38,8.96,0,13.7-3.71,13.7-9.35s-4.1-8.45-14.47-12.16c-14.34-4.99-23.68-12.93-23.68-25.48,0-14.72,12.29-25.99,32.65-25.99,9.73,0,16.9,2.05,22.02,4.35l-4.35,15.75c-3.46-1.66-9.6-4.1-18.05-4.1s-12.55,3.84-12.55,8.32c0,5.5,4.86,7.94,16,12.16,15.23,5.63,22.4,13.57,22.4,25.73,0,14.47-11.14,26.76-34.82,26.76-9.86,0-19.59-2.56-24.45-5.25l3.97-16.13Z"/>
  <path class="cls-1" d="m2257.35,857c5.25,2.69,13.31,5.38,21.64,5.38,8.96,0,13.7-3.71,13.7-9.35s-4.1-8.45-14.47-12.16c-14.34-4.99-23.68-12.93-23.68-25.48,0-14.72,12.29-25.99,32.65-25.99,9.73,0,16.9,2.05,22.02,4.35l-4.35,15.75c-3.46-1.66-9.6-4.1-18.05-4.1s-12.55,3.84-12.55,8.32c0,5.5,4.86,7.94,16,12.16,15.23,5.63,22.4,13.57,22.4,25.73,0,14.47-11.14,26.76-34.82,26.76-9.86,0-19.59-2.56-24.45-5.25l3.97-16.13Z"/>
  <path class="cls-1" d="m3911.34,2714.81h-23.17v-16.39h66.32v16.39h-23.56v69.9h-19.59v-69.9Z"/>
  <path class="cls-1" d="m893.76,731.99v49.67c0,14.85,5.63,22.4,15.62,22.4s15.87-7.17,15.87-22.4v-49.67h19.46v48.39c0,26.63-13.44,39.3-35.97,39.3s-34.57-12.03-34.57-39.56v-48.14h19.59Z"/>
  <path class="cls-1" d="m83.51,635.51l-27.65-86.29h21.38l10.5,36.49c2.94,10.24,5.63,20.1,7.68,30.85h.38c2.18-10.37,4.86-20.61,7.81-30.47l11.01-36.87h20.74l-29.06,86.29h-22.79Z"/>
  <path class="cls-1" d="m4257.67,1351.94l-20.48-86.29h20.87l6.53,35.59c1.92,10.24,3.71,21.38,5.12,30.09h.26c1.41-9.35,3.46-19.72,5.63-30.34l7.3-35.33h20.74l6.91,36.36c1.92,10.11,3.33,19.33,4.61,28.93h.26c1.28-9.6,3.2-19.72,4.99-29.96l7.04-35.33h19.84l-22.28,86.29h-21.12l-7.3-37.13c-1.66-8.71-3.07-16.77-4.1-26.63h-.26c-1.54,9.73-2.94,17.92-4.99,26.63l-8.19,37.13h-21.38Z"/>
  <path class="cls-1" d="m672.82,2627.61l-7.81-15.62c-3.2-6.02-5.25-10.5-7.68-15.49h-.26c-1.79,4.99-3.97,9.47-6.66,15.49l-7.17,15.62h-22.28l24.96-43.66-24.07-42.63h22.4l7.55,15.75c2.56,5.25,4.48,9.47,6.53,14.34h.26c2.05-5.5,3.71-9.35,5.89-14.34l7.3-15.75h22.28l-24.32,42.12,25.6,44.17h-22.53Z"/>
  <path class="cls-1" d="m1244.64,2585.65v-35.33l-27.27-50.95h22.28l8.83,20.74c2.69,6.27,4.48,10.88,6.66,16.51h.26c1.92-5.38,3.97-10.37,6.53-16.51l8.71-20.74h21.89l-28.42,50.31v35.97h-19.46Z"/>
  <path class="cls-1" d="m1221.41,1827.67l41.09-59.15v-.51h-37.25v-16.13h62.6v11.27l-40.2,58.38v.51h40.84v16.13h-67.08v-10.5Z"/>
  <path class="cls-4" d="m3657.76,1294.74l-8.52,30.69h-28.03l36.55-119.58h35.48l37.08,119.58h-29.1l-9.23-30.69h-34.24Zm30.34-20.23l-7.45-25.37c-2.13-7.1-4.26-15.97-6.03-23.06h-.35c-1.77,7.1-3.55,16.14-5.5,23.06l-7.1,25.37h26.44Z"/>
  <path class="cls-4" d="m1290.58,355.29c7.1-1.42,21.47-2.48,34.95-2.48,16.5,0,26.61,1.6,35.31,6.74,8.34,4.44,14.37,12.6,14.37,23.42s-6.21,20.58-19.69,25.55v.35c13.66,3.73,23.77,14.02,23.77,29.45,0,10.82-4.97,19.34-12.42,25.37-8.69,6.92-23.24,10.82-47.02,10.82-13.31,0-23.24-.89-29.27-1.77v-117.45Zm26.79,45.77h8.87c14.19,0,21.82-5.86,21.82-14.73s-6.92-13.84-19.16-13.84c-5.85,0-9.23.36-11.53.71v27.85Zm0,53.05c2.66.36,5.85.36,10.47.36,12.24,0,23.06-4.61,23.06-17.21s-10.82-16.85-24.31-16.85h-9.23v33.71Z"/>
  <path class="cls-4" d="m3087.12,2522.33c-4.97,2.48-16.14,5.15-30.69,5.15-41.34,0-62.63-25.73-62.63-59.79,0-40.81,29.1-63.51,65.29-63.51,14.02,0,24.66,2.84,29.45,5.32l-5.5,21.47c-5.5-2.31-13.13-4.43-22.71-4.43-21.47,0-38.14,12.95-38.14,39.56,0,23.95,14.19,39.03,38.32,39.03,8.16,0,17.21-1.77,22.53-3.9l4.08,21.11Z"/>
  <path class="cls-4" d="m1443.75,2482.95c9.94-1.6,22.89-2.48,36.55-2.48,22.71,0,37.43,4.08,48.97,12.77,12.42,9.23,20.23,23.95,20.23,45.06,0,22.89-8.34,38.68-19.87,48.43-12.6,10.47-31.76,15.44-55.18,15.44-14.02,0-23.95-.89-30.69-1.77v-117.45Zm27.14,97.58c2.31.53,6.03.53,9.4.53,24.48.18,40.45-13.31,40.45-41.87.18-24.84-14.37-37.97-37.61-37.97-6.03,0-9.94.53-12.24,1.06v78.24Z"/>
  <path class="cls-4" d="m4433.07,3449.02h-44v28.39h49.14v22.18h-76.29v-119.58h73.81v22.18h-46.66v24.84h44v22Z"/>
  <path class="cls-4" d="m3119.62,1113.47h73.1v22.18h-45.95v27.32h42.93v22h-42.93v48.08h-27.14v-119.58Z"/>
  <path class="cls-4" d="m3327.81,27.2h73.1v22.18h-45.95v27.32h42.93v22h-42.93v48.08h-27.14V27.2Z"/>
  <path class="cls-4" d="m4902.9,569.95c-8.34,2.84-24.13,6.74-39.92,6.74-21.82,0-37.61-5.5-48.61-16.15-11-10.29-17.03-25.9-16.85-43.47.18-39.74,29.1-62.45,68.31-62.45,15.44,0,27.32,3.02,33.18,5.86l-5.68,21.64c-6.56-2.84-14.73-5.14-27.85-5.14-22.53,0-39.56,12.77-39.56,38.68s15.44,39.21,37.61,39.21c6.21,0,11.18-.71,13.31-1.77v-25.02h-18.45v-21.11h44.53v62.98Z"/>
  <path class="cls-4" d="m287.51,588.97v45.95h44.53v-45.95h26.97v119.58h-26.97v-50.03h-44.53v50.03h-27.14v-119.58h27.14Z"/>
  <path class="cls-4" d="m4931.73,1929.97v119.58h-27.14v-119.58h27.14Z"/>
  <path class="cls-4" d="m60.03,306.09h26.97v75.58c0,34.06-16.32,45.95-42.58,45.95-6.21,0-14.37-1.06-19.69-2.84l3.02-21.82c3.73,1.24,8.52,2.13,13.84,2.13,11.35,0,18.45-5.15,18.45-23.77v-75.22Z"/>
  <path class="cls-4" d="m3907.33,3373.01h26.79v52.87h.53c2.66-4.61,5.5-8.87,8.16-13.13l27.14-39.74h33.18l-39.56,50.92,41.69,68.66h-31.58l-29.27-51.63-10.29,12.6v39.03h-26.79v-119.58Z"/>
  <path class="cls-4" d="m2208.32,60.93h27.14v96.87h47.55v22.71h-74.69V60.93Z"/>
  <path class="cls-4" d="m4128.33,1826.68c-.53-14.37-1.06-31.76-1.06-49.14h-.53c-3.73,15.26-8.69,32.29-13.31,46.31l-14.55,46.66h-21.11l-12.77-46.31c-3.9-14.02-7.98-31.05-10.82-46.66h-.35c-.71,16.14-1.24,34.6-2.13,49.5l-2.13,45.42h-25.02l7.63-119.58h36.02l11.71,39.92c3.73,13.84,7.45,28.74,10.11,42.76h.53c3.37-13.84,7.45-29.63,11.35-42.93l12.77-39.74h35.31l6.56,119.58h-26.43l-1.77-45.77Z"/>
  <path class="cls-4" d="m703.91,2947.84v-119.58h31.58l24.84,43.82c7.1,12.6,14.19,27.5,19.52,40.98h.53c-1.77-15.79-2.31-31.94-2.31-49.85v-34.95h24.84v119.58h-28.39l-25.55-46.13c-7.1-12.77-14.9-28.21-20.76-42.23l-.53.18c.71,15.79,1.06,32.64,1.06,52.16v36.02h-24.84Z"/>
  <path class="cls-4" d="m752.84,3431.56c0,39.21-23.77,62.98-58.72,62.98s-56.24-26.79-56.24-60.85c0-35.84,22.89-62.63,58.19-62.63s56.77,27.5,56.77,60.5Zm-86.4,1.6c0,23.42,11,39.92,29.1,39.92s28.74-17.39,28.74-40.63c0-21.47-10.29-39.92-28.92-39.92s-28.92,17.39-28.92,40.63Z"/>
  <path class="cls-4" d="m2860.7,3385.78c8.34-1.42,20.05-2.48,36.55-2.48s28.56,3.19,36.55,9.58c7.63,6.03,12.77,15.97,12.77,27.68s-3.9,21.64-11,28.39c-9.23,8.69-22.89,12.6-38.85,12.6-3.55,0-6.74-.18-9.23-.53v42.76h-26.79v-117.98Zm26.79,54.29c2.31.53,5.15.71,9.05.71,14.37,0,23.24-7.27,23.24-19.52,0-11-7.63-17.56-21.11-17.56-5.5,0-9.23.53-11.18,1.06v35.31Z"/>
  <path class="cls-4" d="m622.26,1189.13c-17.03-4.97-31.23-10.11-47.19-16.85-2.66-1.06-5.5-1.6-8.34-1.77-26.97-1.77-52.16-21.64-52.16-60.68,0-35.84,22.71-62.81,58.37-62.81s56.6,27.68,56.6,60.32c0,27.14-12.6,46.31-28.39,53.4v.71c9.23,2.66,19.52,4.79,28.92,6.74l-7.81,20.94Zm-21.29-80.72c0-21.82-10.29-39.92-28.74-39.92s-29.1,18.1-29.1,40.45c-.18,22.71,10.82,40.1,28.92,40.1s28.92-17.21,28.92-40.63Z"/>
  <path class="cls-4" d="m1496.62,3375.05c8.69-1.42,21.64-2.48,36.02-2.48,17.74,0,30.16,2.66,38.68,9.4,7.1,5.68,11,14.02,11,25.02,0,15.26-10.82,25.73-21.11,29.45v.53c8.34,3.37,12.95,11.35,15.97,22.35,3.73,13.48,7.45,29.1,9.76,33.71h-27.68c-1.95-3.37-4.79-13.13-8.34-27.85-3.19-14.9-8.34-18.98-19.34-19.16h-8.16v47.02h-26.79v-117.98Zm26.79,51.45h10.65c13.48,0,21.47-6.74,21.47-17.21,0-11-7.45-16.5-19.87-16.68-6.56,0-10.29.53-12.24.89v33Z"/>
  <path class="cls-4" d="m4500.4,2684.07c7.27,3.73,18.45,7.45,29.98,7.45,12.42,0,18.98-5.14,18.98-12.95s-5.68-11.71-20.05-16.85c-19.87-6.92-32.82-17.92-32.82-35.31,0-20.4,17.03-36.02,45.24-36.02,13.48,0,23.42,2.84,30.52,6.03l-6.03,21.82c-4.79-2.31-13.31-5.68-25.02-5.68s-17.39,5.32-17.39,11.53c0,7.63,6.74,11,22.18,16.85,21.11,7.81,31.05,18.81,31.05,35.66,0,20.05-15.44,37.08-48.26,37.08-13.66,0-27.14-3.55-33.89-7.27l5.5-22.35Z"/>
  <path class="cls-4" d="m4803.56,1205.28c7.27,3.73,18.45,7.45,29.98,7.45,12.42,0,18.98-5.15,18.98-12.95s-5.68-11.71-20.05-16.85c-19.87-6.92-32.82-17.92-32.82-35.31,0-20.4,17.03-36.02,45.24-36.02,13.48,0,23.42,2.84,30.52,6.03l-6.03,21.82c-4.79-2.31-13.31-5.68-25.02-5.68s-17.39,5.32-17.39,11.53c0,7.63,6.74,11,22.18,16.85,21.11,7.81,31.05,18.81,31.05,35.66,0,20.05-15.44,37.08-48.26,37.08-13.66,0-27.14-3.55-33.89-7.27l5.5-22.35Z"/>
  <path class="cls-4" d="m4305.64,657.17h-32.11v-22.71h91.9v22.71h-32.64v96.87h-27.14v-96.87Z"/>
  <path class="cls-4" d="m4378.34,50.07v68.84c0,20.58,7.81,31.05,21.64,31.05s22-9.94,22-31.05V50.07h26.97v67.06c0,36.9-18.63,54.47-49.85,54.47s-47.9-16.68-47.9-54.82V50.07h27.14Z"/>
  <path class="cls-4" d="m2099.27,1883.88l-38.32-119.58h29.63l14.55,50.56c4.08,14.19,7.81,27.85,10.64,42.76h.53c3.02-14.37,6.74-28.56,10.82-42.23l15.26-51.1h28.74l-40.27,119.58h-31.58Z"/>
  <path class="cls-4" d="m1703.58,3093.91l-28.39-119.58h28.92l9.05,49.32c2.66,14.19,5.15,29.63,7.1,41.69h.36c1.95-12.95,4.79-27.32,7.81-42.05l10.11-48.97h28.74l9.58,50.39c2.66,14.02,4.61,26.79,6.39,40.1h.36c1.77-13.31,4.44-27.32,6.92-41.52l9.76-48.97h27.5l-30.87,119.58h-29.27l-10.11-51.45c-2.31-12.06-4.26-23.24-5.68-36.9h-.35c-2.13,13.48-4.08,24.84-6.92,36.9l-11.35,51.45h-29.63Z"/>
  <path class="cls-4" d="m2180.85,1168.55l-10.82-21.64c-4.44-8.34-7.27-14.55-10.64-21.47h-.36c-2.48,6.92-5.5,13.13-9.23,21.47l-9.94,21.64h-30.87l34.6-60.5-33.35-59.08h31.05l10.47,21.82c3.55,7.27,6.21,13.13,9.05,19.87h.36c2.84-7.63,5.14-12.95,8.16-19.87l10.11-21.82h30.87l-33.71,58.37,35.48,61.21h-31.23Z"/>
  <path class="cls-4" d="m2964.38,3187.26v-48.97l-37.79-70.61h30.87l12.24,28.74c3.73,8.69,6.21,15.08,9.23,22.89h.36c2.66-7.45,5.5-14.37,9.05-22.89l12.06-28.74h30.34l-39.39,69.72v49.85h-26.97Z"/>
  <path class="cls-4" d="m4825.19,3451.25l56.95-81.97v-.71h-51.63v-22.35h86.76v15.61l-55.71,80.9v.71h56.6v22.35h-92.97v-14.55Z"/>
  <path class="cls-3" d="m2860.71,1446.44l-21.35,76.95h-70.28l91.63-299.8h88.96l92.97,299.8h-72.95l-23.13-76.95h-85.85Zm76.06-50.71l-18.68-63.61c-5.34-17.79-10.68-40.03-15.12-57.82h-.89c-4.45,17.79-8.9,40.48-13.79,57.82l-17.79,63.61h66.28Z"/>
  <path class="cls-3" d="m340.8,1659.29c17.79-3.56,53.82-6.23,87.63-6.23,41.37,0,66.72,4,88.52,16.9,20.91,11.12,36.03,31.58,36.03,58.71s-15.57,51.6-49.37,64.05v.89c34.25,9.34,59.61,35.14,59.61,73.84,0,27.13-12.45,48.48-31.14,63.61-21.8,17.35-58.27,27.13-117.87,27.13-33.36,0-58.27-2.22-73.39-4.45v-294.47Zm67.17,114.76h22.24c35.58,0,54.71-14.68,54.71-36.92s-17.35-34.7-48.04-34.7c-14.68,0-23.13.89-28.91,1.78v69.84Zm0,133c6.67.89,14.68.89,26.24.89,30.69,0,57.83-11.57,57.83-43.15s-27.13-42.26-60.94-42.26h-23.13v84.51Z"/>
  <path class="cls-3" d="m1831.98,351.17c-12.45,6.23-40.48,12.9-76.95,12.9-103.64,0-157.02-64.5-157.02-149.9,0-102.31,72.95-159.24,163.69-159.24,35.14,0,61.83,7.12,73.84,13.34l-13.79,53.82c-13.79-5.78-32.92-11.12-56.94-11.12-53.82,0-95.63,32.47-95.63,99.19,0,60.05,35.58,97.86,96.08,97.86,20.46,0,43.15-4.45,56.49-9.79l10.23,52.93Z"/>
  <path class="cls-3" d="m3169.54,1559.65c24.91-4,57.38-6.23,91.63-6.23,56.94,0,93.86,10.23,122.77,32.03,31.14,23.13,50.71,60.05,50.71,112.98,0,57.38-20.91,96.97-49.82,121.43-31.58,26.24-79.62,38.7-138.34,38.7-35.14,0-60.05-2.22-76.95-4.45v-294.47Zm68.06,244.65c5.78,1.34,15.12,1.34,23.58,1.34,61.38.45,101.42-33.36,101.42-104.98.44-62.27-36.03-95.19-94.3-95.19-15.12,0-24.91,1.34-30.69,2.67v196.16Z"/>
  <path class="cls-3" d="m3714.58,2929.19h-110.31v71.17h123.21v55.6h-191.27v-299.8h185.04v55.6h-116.99v62.27h110.31v55.16Z"/>
  <path class="cls-3" d="m1554.4,1771.33h183.26v55.6h-115.21v68.5h107.64v55.16h-107.64v120.54h-68.06v-299.8Z"/>
  <path class="cls-3" d="m192.02,2399.98c-20.91,7.12-60.49,16.9-100.08,16.9-54.71,0-94.3-13.79-121.88-40.48-27.58-25.8-42.7-64.94-42.26-108.98.44-99.64,72.95-156.57,171.25-156.57,38.7,0,68.5,7.56,83.18,14.68l-14.23,54.27c-16.46-7.12-36.92-12.9-69.84-12.9-56.49,0-99.19,32.03-99.19,96.97s38.7,98.3,94.3,98.3c15.57,0,28.02-1.78,33.36-4.45v-62.72h-46.26v-52.93h111.65v157.91Z"/>
  <path class="cls-3" d="m1402.99,576.73v115.21h111.65v-115.21h67.61v299.8h-67.61v-125.44h-111.65v125.44h-68.06v-299.8h68.06Z"/>
  <path class="cls-3" d="m545.8,634.02v299.8h-68.06v-299.8h68.06Z"/>
  <path class="cls-3" d="m344.41,3166.43h67.61v189.49c0,85.4-40.92,115.21-106.76,115.21-15.57,0-36.03-2.67-49.37-7.12l7.56-54.71c9.34,3.11,21.35,5.34,34.7,5.34,28.47,0,46.26-12.9,46.26-59.6v-188.6Z"/>
  <path class="cls-3" d="m4578.24,1364.26h67.17v132.55h1.33c6.67-11.56,13.79-22.24,20.46-32.92l68.06-99.64h83.18l-99.19,127.66,104.53,172.14h-79.18l-73.39-129.44-25.8,31.58v97.86h-67.17v-299.8Z"/>
  <path class="cls-3" d="m3292.56,2903.85h68.06v242.87h119.21v56.94h-187.27v-299.8Z"/>
  <path class="cls-3" d="m1870.01,2791.3c-1.33-36.03-2.67-79.62-2.67-123.21h-1.33c-9.34,38.25-21.8,80.96-33.36,116.1l-36.47,116.98h-52.93l-32.03-116.1c-9.79-35.14-20.02-77.84-27.13-116.98h-.89c-1.78,40.48-3.11,86.74-5.34,124.1l-5.34,113.87h-62.72l19.13-299.8h90.3l29.36,100.08c9.34,34.7,18.68,72.06,25.35,107.2h1.33c8.45-34.7,18.68-74.28,28.47-107.64l32.03-99.64h88.52l16.46,299.8h-66.28l-4.45-114.76Z"/>
  <path class="cls-3" d="m1203.22,1739.25v-299.8h79.18l62.27,109.87c17.79,31.58,35.59,68.95,48.93,102.75h1.33c-4.45-39.59-5.78-80.07-5.78-124.99v-87.63h62.27v299.8h-71.17l-64.05-115.65c-17.79-32.03-37.36-70.73-52.04-105.87l-1.33.45c1.78,39.59,2.67,81.85,2.67,130.77v90.3h-62.27Z"/>
  <path class="cls-3" d="m1180.42,2930.04c0,98.3-59.6,157.91-147.23,157.91s-141-67.17-141-152.57c0-89.85,57.38-157.02,145.9-157.02s142.34,68.95,142.34,151.68Zm-216.62,4c0,58.71,27.58,100.08,72.95,100.08s72.06-43.59,72.06-101.86c0-53.82-25.8-100.08-72.5-100.08s-72.5,43.59-72.5,101.86Z"/>
  <path class="cls-3" d="m3942.41,258.17c20.91-3.56,50.26-6.23,91.63-6.23s71.61,8.01,91.63,24.02c19.13,15.12,32.03,40.03,32.03,69.39s-9.79,54.27-27.58,71.17c-23.13,21.8-57.38,31.58-97.41,31.58-8.9,0-16.9-.44-23.13-1.33v107.2h-67.17v-295.8Zm67.17,136.11c5.78,1.33,12.9,1.78,22.69,1.78,36.03,0,58.27-18.24,58.27-48.93,0-27.58-19.13-44.04-52.93-44.04-13.79,0-23.13,1.33-28.02,2.67v88.52Z"/>
  <path class="cls-3" d="m1001.34,366.86c-42.7-12.45-78.29-25.35-118.32-42.26-6.67-2.67-13.79-4-20.91-4.45-67.61-4.45-130.77-54.27-130.77-152.13,0-89.85,56.94-157.46,146.34-157.46s141.89,69.39,141.89,151.24c0,68.06-31.58,116.1-71.17,133.89v1.78c23.13,6.67,48.93,12.01,72.5,16.9l-19.57,52.49Zm-53.38-202.39c0-54.71-25.8-100.08-72.06-100.08s-72.95,45.37-72.95,101.42c-.45,56.94,27.13,100.53,72.5,100.53s72.5-43.15,72.5-101.86Z"/>
  <path class="cls-3" d="m4173.67,2759.06c21.8-3.56,54.27-6.23,90.3-6.23,44.48,0,75.62,6.67,96.97,23.57,17.79,14.23,27.58,35.14,27.58,62.72,0,38.25-27.13,64.5-52.93,73.84v1.33c20.91,8.45,32.47,28.47,40.03,56.05,9.34,33.8,18.68,72.95,24.46,84.51h-69.39c-4.89-8.45-12.01-32.92-20.91-69.84-8.01-37.36-20.91-47.59-48.48-48.04h-20.46v117.87h-67.17v-295.8Zm67.17,129h26.69c33.81,0,53.82-16.9,53.82-43.15,0-27.58-18.68-41.37-49.82-41.81-16.46,0-25.8,1.33-30.69,2.22v82.73Z"/>
  <path class="cls-3" d="m3069.1,750.52c18.24,9.34,46.26,18.68,75.17,18.68,31.14,0,47.6-12.9,47.6-32.47s-14.23-29.36-50.26-42.26c-49.82-17.35-82.29-44.93-82.29-88.52,0-51.15,42.7-90.3,113.43-90.3,33.81,0,58.71,7.12,76.51,15.12l-15.12,54.71c-12.01-5.78-33.36-14.23-62.72-14.23s-43.59,13.34-43.59,28.91c0,19.13,16.9,27.58,55.6,42.26,52.93,19.57,77.84,47.15,77.84,89.41,0,50.26-38.7,92.97-120.99,92.97-34.25,0-68.06-8.9-84.96-18.24l13.79-56.05Z"/>
  <path class="cls-3" d="m2559.45,1931.52h-80.51v-56.94h230.41v56.94h-81.85v242.87h-68.06v-242.87Z"/>
  <path class="cls-3" d="m3395.83,3253.66v172.59c0,51.6,19.57,77.84,54.27,77.84s55.16-24.91,55.16-77.84v-172.59h67.61v168.14c0,92.52-46.71,136.56-124.99,136.56s-120.1-41.81-120.1-137.45v-167.25h68.06Z"/>
  <path class="cls-3" d="m1674.74,1532.64l-96.08-299.8h74.28l36.48,126.77c10.23,35.59,19.57,69.84,26.69,107.2h1.34c7.56-36.03,16.9-71.61,27.13-105.87l38.25-128.11h72.06l-100.97,299.8h-79.18Z"/>
  <path class="cls-3" d="m2499.26,615.5l-71.17-299.8h72.5l22.68,123.66c6.67,35.59,12.9,74.28,17.79,104.53h.89c4.89-32.47,12.01-68.5,19.57-105.42l25.35-122.77h72.06l24.02,126.33c6.67,35.14,11.56,67.17,16.01,100.53h.89c4.45-33.36,11.12-68.5,17.35-104.09l24.46-122.77h68.95l-77.4,299.8h-73.39l-25.35-129c-5.78-30.25-10.68-58.27-14.23-92.52h-.89c-5.34,33.81-10.23,62.27-17.35,92.52l-28.47,129h-74.28Z"/>
  <path class="cls-3" d="m4567.13,3277.37l-27.13-54.27c-11.12-20.91-18.24-36.48-26.69-53.82h-.89c-6.23,17.35-13.79,32.92-23.13,53.82l-24.91,54.27h-77.4l86.74-151.68-83.62-148.12h77.84l26.24,54.71c8.9,18.24,15.57,32.92,22.68,49.82h.89c7.12-19.13,12.9-32.47,20.46-49.82l25.35-54.71h77.4l-84.51,146.34,88.96,153.46h-78.29Z"/>
  <path class="cls-3" d="m789.14,1310.54v-122.77l-94.75-177.03h77.4l30.69,72.06c9.34,21.8,15.57,37.81,23.13,57.38h.89c6.67-18.68,13.79-36.03,22.68-57.38l30.25-72.06h76.06l-98.75,174.81v124.99h-67.61Z"/>
  <path class="cls-3" d="m3333.78,2377.29l142.78-205.5v-1.78h-129.44v-56.05h217.51v39.14l-139.67,202.83v1.78h141.89v56.05h-233.08v-36.47Z"/>
  <path class="cls-4" d="m2639.65,3433.09l-4.73,17.04h-15.56l20.29-66.39h19.7l20.59,66.39h-16.15l-5.12-17.04h-19.01Zm16.84-11.23l-4.14-14.09c-1.18-3.94-2.36-8.86-3.35-12.8h-.2c-.98,3.94-1.97,8.96-3.05,12.8l-3.94,14.09h14.68Z"/>
  <path class="cls-4" d="m1174.04,3407.38c3.94-.79,11.92-1.38,19.4-1.38,9.16,0,14.77.89,19.6,3.74,4.63,2.46,7.98,6.99,7.98,13s-3.45,11.43-10.93,14.18v.2c7.58,2.07,13.2,7.78,13.2,16.35,0,6.01-2.76,10.74-6.89,14.08-4.83,3.84-12.9,6.01-26.1,6.01-7.39,0-12.9-.49-16.25-.99v-65.2Zm14.87,25.41h4.92c7.88,0,12.11-3.25,12.11-8.18s-3.84-7.68-10.64-7.68c-3.25,0-5.12.2-6.4.39v15.46Zm0,29.45c1.48.2,3.25.2,5.81.2,6.8,0,12.8-2.56,12.8-9.55s-6.01-9.36-13.49-9.36h-5.12v18.71Z"/>
  <path class="cls-4" d="m1008.5,2371c-2.76,1.38-8.96,2.86-17.04,2.86-22.95,0-34.77-14.28-34.77-33.19,0-22.65,16.15-35.26,36.25-35.26,7.78,0,13.69,1.58,16.35,2.95l-3.05,11.92c-3.05-1.28-7.29-2.46-12.61-2.46-11.92,0-21.18,7.19-21.18,21.96,0,13.3,7.88,21.67,21.28,21.67,4.53,0,9.55-.98,12.51-2.17l2.27,11.72Z"/>
  <path class="cls-4" d="m4685.93,1001.46c5.52-.89,12.71-1.38,20.29-1.38,12.61,0,20.78,2.27,27.18,7.09,6.89,5.12,11.23,13.3,11.23,25.02,0,12.71-4.63,21.47-11.03,26.89-6.99,5.81-17.63,8.57-30.63,8.57-7.78,0-13.3-.49-17.04-.98v-65.2Zm15.07,54.17c1.28.3,3.35.3,5.22.3,13.59.1,22.46-7.39,22.46-23.25.1-13.79-7.98-21.08-20.88-21.08-3.35,0-5.52.3-6.8.59v43.44Z"/>
  <path class="cls-4" d="m4554.29,3383.26h-24.43v15.76h27.28v12.31h-42.35v-66.39h40.97v12.31h-25.9v13.79h24.43v12.21Z"/>
  <path class="cls-4" d="m4004.17,954.42h-24.43v15.76h27.28v12.31h-42.35v-66.39h40.97v12.31h-25.9v13.79h24.43v12.21Z"/>
  <path class="cls-4" d="m3706.42,2300.26h-24.43v15.76h27.28v12.31h-42.35v-66.39h40.97v12.31h-25.9v13.79h24.43v12.21Z"/>
  <path class="cls-4" d="m3136.29,771.31h40.58v12.31h-25.51v15.17h23.84v12.21h-23.84v26.69h-15.07v-66.39Z"/>
  <path class="cls-4" d="m2274.92,1316.99c-4.63,1.58-13.4,3.74-22.16,3.74-12.11,0-20.88-3.05-26.99-8.96-6.11-5.71-9.46-14.38-9.36-24.13.1-22.06,16.15-34.67,37.92-34.67,8.57,0,15.17,1.67,18.42,3.25l-3.15,12.02c-3.64-1.58-8.18-2.86-15.46-2.86-12.51,0-21.96,7.09-21.96,21.47s8.57,21.77,20.88,21.77c3.45,0,6.21-.39,7.39-.98v-13.89h-10.24v-11.72h24.72v34.97Z"/>
  <path class="cls-4" d="m3352.05,2630.92v25.51h24.72v-25.51h14.97v66.39h-14.97v-27.78h-24.72v27.78h-15.07v-66.39h15.07Z"/>
  <path class="cls-4" d="m4811.46,2817.59v25.51h24.72v-25.51h14.97v66.39h-14.97v-27.78h-24.72v27.78h-15.07v-66.39h15.07Z"/>
  <path class="cls-4" d="m3696.97,1779.47v25.51h24.72v-25.51h14.97v66.39h-14.97v-27.78h-24.72v27.78h-15.07v-66.39h15.07Z"/>
  <path class="cls-4" d="m74.69,2957.39v25.51h24.72v-25.51h14.97v66.39h-14.97v-27.78h-24.72v27.78h-15.07v-66.39h15.07Z"/>
  <path class="cls-4" d="m4868.82,2330.93v66.39h-15.07v-66.39h15.07Z"/>
  <path class="cls-4" d="m1433.35,1048.43h14.97v41.96c0,18.91-9.06,25.51-23.64,25.51-3.45,0-7.98-.59-10.93-1.58l1.67-12.11c2.07.69,4.73,1.18,7.68,1.18,6.3,0,10.24-2.86,10.24-13.2v-41.76Z"/>
  <path class="cls-4" d="m4022.87,2417.91h14.87v29.35h.3c1.48-2.56,3.05-4.92,4.53-7.29l15.07-22.06h18.42l-21.96,28.27,23.15,38.12h-17.53l-16.25-28.66-5.71,6.99v21.67h-14.87v-66.39Z"/>
  <path class="cls-4" d="m3669.94,522.54h14.87v29.35h.3c1.48-2.56,3.05-4.92,4.53-7.29l15.07-22.06h18.42l-21.96,28.27,23.15,38.12h-17.53l-16.25-28.66-5.71,6.99v21.67h-14.87v-66.39Z"/>
  <path class="cls-4" d="m1624.29,2113.71h15.07v53.78h26.4v12.61h-41.47v-66.39Z"/>
  <path class="cls-4" d="m4437.82,2998.36c-.3-7.98-.59-17.63-.59-27.28h-.3c-2.07,8.47-4.83,17.93-7.39,25.71l-8.08,25.9h-11.72l-7.09-25.71c-2.17-7.78-4.43-17.24-6.01-25.9h-.2c-.39,8.96-.69,19.21-1.18,27.48l-1.18,25.22h-13.89l4.24-66.39h19.99l6.5,22.16c2.07,7.68,4.14,15.96,5.61,23.74h.3c1.87-7.68,4.14-16.45,6.3-23.84l7.09-22.06h19.6l3.64,66.39h-14.68l-.99-25.41Z"/>
  <path class="cls-4" d="m3901.33,1812.67v-66.39h17.53l13.79,24.33c3.94,6.99,7.88,15.27,10.83,22.75h.3c-.99-8.77-1.28-17.73-1.28-27.68v-19.4h13.79v66.39h-15.76l-14.18-25.61c-3.94-7.09-8.27-15.66-11.52-23.44l-.3.1c.39,8.77.59,18.12.59,28.96v19.99h-13.79Z"/>
  <path class="cls-4" d="m4510.57,231.16c0,21.77-13.2,34.97-32.6,34.97s-31.22-14.87-31.22-33.78c0-19.9,12.71-34.77,32.31-34.77s31.52,15.27,31.52,33.59Zm-47.97.89c0,13,6.11,22.16,16.15,22.16s15.96-9.65,15.96-22.56c0-11.92-5.71-22.16-16.05-22.16s-16.05,9.65-16.05,22.56Z"/>
  <path class="cls-4" d="m3076.81,1350.68c4.63-.79,11.13-1.38,20.29-1.38s15.86,1.77,20.29,5.32c4.24,3.35,7.09,8.86,7.09,15.37s-2.17,12.02-6.11,15.76c-5.12,4.83-12.71,6.99-21.57,6.99-1.97,0-3.74-.1-5.12-.3v23.74h-14.87v-65.5Zm14.87,30.14c1.28.3,2.86.39,5.02.39,7.98,0,12.9-4.04,12.9-10.83,0-6.11-4.24-9.75-11.72-9.75-3.05,0-5.12.3-6.21.59v19.6Z"/>
  <path class="cls-4" d="m1672.75,688.21c-9.46-2.76-17.34-5.61-26.2-9.36-1.48-.59-3.05-.89-4.63-.98-14.97-.98-28.96-12.02-28.96-33.69,0-19.9,12.61-34.87,32.41-34.87s31.42,15.37,31.42,33.49c0,15.07-6.99,25.71-15.76,29.65v.39c5.12,1.48,10.83,2.66,16.05,3.74l-4.33,11.62Zm-11.82-44.82c0-12.12-5.71-22.16-15.96-22.16s-16.15,10.05-16.15,22.46c-.1,12.61,6.01,22.26,16.05,22.26s16.05-9.55,16.05-22.56Z"/>
  <path class="cls-4" d="m110.3,1425.14c4.83-.79,12.02-1.38,19.99-1.38,9.85,0,16.74,1.48,21.47,5.22,3.94,3.15,6.11,7.78,6.11,13.89,0,8.47-6.01,14.28-11.72,16.35v.3c4.63,1.87,7.19,6.3,8.86,12.41,2.07,7.49,4.14,16.15,5.42,18.71h-15.37c-1.08-1.87-2.66-7.29-4.63-15.46-1.77-8.27-4.63-10.54-10.74-10.64h-4.53v26.1h-14.87v-65.5Zm14.87,28.56h5.91c7.49,0,11.92-3.74,11.92-9.55,0-6.11-4.14-9.16-11.03-9.26-3.64,0-5.71.3-6.8.49v18.32Z"/>
  <path class="cls-4" d="m643.02,1369.71c4.04,2.07,10.24,4.14,16.65,4.14,6.89,0,10.54-2.86,10.54-7.19s-3.15-6.5-11.13-9.36c-11.03-3.84-18.22-9.95-18.22-19.6,0-11.33,9.46-19.99,25.12-19.99,7.49,0,13,1.58,16.94,3.35l-3.35,12.12c-2.66-1.28-7.39-3.15-13.89-3.15s-9.65,2.95-9.65,6.4c0,4.24,3.74,6.11,12.31,9.36,11.72,4.33,17.24,10.44,17.24,19.8,0,11.13-8.57,20.59-26.79,20.59-7.58,0-15.07-1.97-18.81-4.04l3.05-12.41Z"/>
  <path class="cls-4" d="m2549.35,1708.72h-17.83v-12.61h51.02v12.61h-18.12v53.78h-15.07v-53.78Z"/>
  <path class="cls-4" d="m1242.56,53.25v38.22c0,11.43,4.33,17.24,12.02,17.24s12.21-5.52,12.21-17.24v-38.22h14.97v37.23c0,20.49-10.34,30.24-27.68,30.24s-26.59-9.26-26.59-30.44v-37.03h15.07Z"/>
  <path class="cls-4" d="m1123.35,582.41l-21.28-66.39h16.45l8.08,28.07c2.27,7.88,4.33,15.46,5.91,23.74h.3c1.67-7.98,3.74-15.86,6.01-23.44l8.47-28.37h15.96l-22.36,66.39h-17.53Z"/>
  <path class="cls-4" d="m3171.93,187.09l-15.76-66.39h16.05l5.02,27.38c1.48,7.88,2.86,16.45,3.94,23.15h.2c1.08-7.19,2.66-15.17,4.33-23.34l5.61-27.18h15.96l5.32,27.97c1.48,7.78,2.56,14.87,3.55,22.26h.2c.99-7.39,2.46-15.17,3.84-23.05l5.42-27.18h15.27l-17.14,66.39h-16.25l-5.61-28.56c-1.28-6.7-2.36-12.9-3.15-20.49h-.2c-1.18,7.49-2.27,13.79-3.84,20.49l-6.3,28.56h-16.45Z"/>
  <path class="cls-4" d="m4600.9,1514.16l-6.01-12.02c-2.46-4.63-4.04-8.08-5.91-11.92h-.2c-1.38,3.84-3.05,7.29-5.12,11.92l-5.52,12.02h-17.14l19.21-33.59-18.52-32.8h17.24l5.81,12.11c1.97,4.04,3.45,7.29,5.02,11.03h.2c1.58-4.24,2.86-7.19,4.53-11.03l5.61-12.11h17.14l-18.71,32.41,19.7,33.98h-17.34Z"/>
  <path class="cls-4" d="m2352.32,2904v-27.18l-20.98-39.2h17.14l6.8,15.96c2.07,4.83,3.45,8.37,5.12,12.71h.2c1.48-4.14,3.05-7.98,5.02-12.71l6.7-15.96h16.84l-21.87,38.71v27.68h-14.97Z"/>
  <path class="cls-4" d="m2229.83,580.85l31.62-45.51v-.39h-28.66v-12.41h48.16v8.67l-30.93,44.91v.39h31.42v12.41h-51.61v-8.08Z"/>
</svg>